# xmcd
#
# Track frame offsets: 
#        150
#        11240
#        23531
#        34319
#        50130
#        66478
#        78709
#        89730
#        103798
#        115136
#        133739
#        146037
#        155308
#        169821
#        180382
#        192917
#        204543
#        217492
#        231186
#        240967
#
# Disc length: 3351 seconds
#
# Revision: 0
# Processed by: cddbd v1.5.1PL2 Copyright (c) Steve Scherf et al.
# Submitted via: ExactAudioCopy v0.95b3
#
DISCID=2b0d1514
DTITLE=Various Artist - Country and Western From Nashville Tennessee [CD3)
DYEAR=2005
DGENRE=Country
TTITLE0=Some Broken Hearts Never Mend - Freddy Quinn
TTITLE1=Just The Other Side Of Nowhere - Bobby Bare
TTITLE2=You Don´t Have To Be A Baby To Cry - Dave Dudley
TTITLE3=Lucille - Jonny Hill
TTITLE4=The Waitress At Mainstreet Café - Bobby Bare
TTITLE5=I Need A Friend - David Price
TTITLE6=Lonely In Person - Buddy Meredith
TTITLE7=Morning Sun - Dave Dudley
TTITLE8=Love Forever - Bobby Bare
TTITLE9=He Doesn´t Live There Anymore - Dave Dudley
TTITLE10=Roses Are Red My Love - Bobby Bare
TTITLE11=Coming Back In Style - Buddy Meredith
TTITLE12=Two Places At Once - Freddy Quinn
TTITLE13=King Of The Road - Jonny Hill
TTITLE14=When Love Is Gone - Bobby Bare
TTITLE15=Blue Bedroom Eyes - Dave Dudley
TTITLE16=High And Dry - Bobby Bare
TTITLE17=Thirty Eight And Lonely - Dave Dudley
TTITLE18=Gone - Ferlin Husky
TTITLE19=Crazy Arms - Bobby Bare
EXTD=
EXTT0=
EXTT1=
EXTT2=
EXTT3=
EXTT4=
EXTT5=
EXTT6=
EXTT7=
EXTT8=
EXTT9=
EXTT10=
EXTT11=
EXTT12=
EXTT13=
EXTT14=
EXTT15=
EXTT16=
EXTT17=
EXTT18=
EXTT19=
PLAYORDER=
